<svg xmlns="http://www.w3.org/2000/svg" viewBox="0 0 32 32" width="32" height="32">
  <defs>
    <linearGradient id="shoeGradient" x1="0%" y1="0%" x2="100%" y2="100%">
      <stop offset="0%" style="stop-color:#3b82f6;stop-opacity:1" />
      <stop offset="100%" style="stop-color:#1d4ed8;stop-opacity:1" />
    </linearGradient>
  </defs>
  
  <!-- Running shoe outline -->
  <path d="M4 18c0-2 1-3 3-3h16c3 0 5 2 5 5v2c0 2-2 4-5 4H10c-3 0-6-2-6-6v-2z" fill="url(#shoeGradient)" stroke="#1e40af" stroke-width="1"/>
  
  <!-- Shoe sole -->
  <path d="M4 22c0 1 1 2 3 2h16c2 0 3-1 3-2v1c0 2-2 3-4 3H8c-2 0-4-1-4-2v-2z" fill="#1e40af"/>
  
  <!-- Shoe laces -->
  <circle cx="12" cy="18" r="1" fill="white"/>
  <circle cx="16" cy="17" r="1" fill="white"/>
  <circle cx="20" cy="18" r="1" fill="white"/>
  
  <!-- Speed lines (motion effect) -->
  <path d="M2 16h4M1 19h3M2 22h4" stroke="#60a5fa" stroke-width="1" stroke-linecap="round"/>
</svg>
